<?xml version="1.0" standalone="no"?>
<!DOCTYPE svg PUBLIC "-//W3C//DTD SVG 20010904//EN"
 "http://www.w3.org/TR/2001/REC-SVG-20010904/DTD/svg10.dtd">
<svg version="1.0" xmlns="http://www.w3.org/2000/svg"
 width="280.000000pt" height="280.000000pt" viewBox="0 0 280.000000 280.000000"
 preserveAspectRatio="xMidYMid meet">
<metadata>
Created by potrace 1.14, written by Peter Selinger 2001-2017
</metadata>
<g transform="translate(0.000000,280.000000) scale(0.100000,-0.100000)"
fill="#000000" stroke="none">
<path d="M0 1400 l0 -1400 1400 0 1400 0 0 1400 0 1400 -1400 0 -1400 0 0
-1400z m761 1221 c8 -10 34 -65 57 -122 291 -720 670 -1631 677 -1631 5 0 82
177 170 394 88 216 250 612 359 880 179 440 201 488 225 496 39 14 101 6 121
-15 12 -12 30 -86 59 -243 22 -124 76 -422 121 -662 44 -240 80 -447 80 -460
1 -13 -48 -175 -107 -360 -85 -267 -109 -332 -115 -310 -3 15 -50 291 -104
615 -53 323 -100 587 -103 587 -3 0 -21 -39 -40 -88 -18 -48 -66 -170 -106
-272 -40 -102 -125 -320 -190 -485 -64 -165 -155 -397 -201 -515 -49 -125 -93
-222 -105 -233 -29 -23 -110 -23 -137 1 -17 15 -98 216 -545 1357 -50 127 -92
232 -94 234 -12 15 -14 3 -128 -709 -132 -825 -134 -834 -152 -847 -12 -9 -61
-13 -160 -13 -196 0 -187 -18 -134 267 22 120 101 549 176 953 74 404 144 785
156 845 62 340 62 339 104 355 31 13 98 2 116 -19z"/>
</g>
</svg>
